<?xml version="1.0" standalone="no"?>
<!DOCTYPE svg PUBLIC "-//W3C//DTD SVG 20010904//EN"
 "http://www.w3.org/TR/2001/REC-SVG-20010904/DTD/svg10.dtd">
<svg version="1.0" xmlns="http://www.w3.org/2000/svg"
 width="512.000000pt" height="512.000000pt" viewBox="0 0 512.000000 512.000000"
 preserveAspectRatio="xMidYMid meet">
<metadata>
Created by potrace 1.11, written by Peter Selinger 2001-2013
</metadata>
<g transform="translate(0.000000,512.000000) scale(0.100000,-0.100000)"
fill="#000000" stroke="none">
<path d="M0 2560 l0 -2560 2560 0 2560 0 0 2560 0 2560 -2560 0 -2560 0 0
-2560z m2890 1860 c465 -33 709 -107 854 -261 140 -148 206 -373 206 -706 l0
-123 -339 0 -338 0 -7 86 c-8 110 -32 215 -63 281 -59 127 -154 158 -518 169
-400 12 -656 -27 -758 -116 -86 -76 -124 -215 -114 -420 9 -182 42 -291 103
-339 68 -53 317 -89 844 -121 635 -38 981 -133 1110 -304 125 -165 179 -427
167 -806 -14 -412 -87 -659 -242 -812 -158 -156 -511 -232 -1140 -245 -719
-15 -1157 69 -1343 257 -94 95 -164 245 -197 424 -15 81 -34 326 -35 444 l0
62 338 0 339 0 6 -137 c13 -284 63 -391 202 -437 110 -36 275 -50 615 -50 347
-1 441 8 564 55 71 26 105 55 139 117 47 86 61 168 61 362 1 156 -2 183 -22
248 -55 175 -148 207 -694 242 -468 30 -665 51 -858 91 -302 64 -454 148 -543
299 -36 63 -82 207 -103 325 -26 144 -26 548 0 690 78 430 250 597 701 679
116 22 283 41 430 49 127 8 504 6 635 -3z"/>
</g>
</svg>
